<mxfile host="app.diagrams.net" modified="2022-10-30T17:07:39.456Z" agent="5.0 (Windows NT 10.0; Win64; x64) AppleWebKit/537.36 (KHTML, like Gecko) Chrome/106.0.0.0 Safari/537.36" etag="02rUgQDDDWxqKBGSBzY0" version="20.5.1" type="github">
  <diagram id="C5RBs43oDa-KdzZeNtuy" name="Page-1">
    <mxGraphModel dx="1422" dy="786" grid="1" gridSize="10" guides="1" tooltips="1" connect="1" arrows="1" fold="1" page="1" pageScale="1" pageWidth="827" pageHeight="1169" math="0" shadow="0">
      <root>
        <mxCell id="WIyWlLk6GJQsqaUBKTNV-0" />
        <mxCell id="WIyWlLk6GJQsqaUBKTNV-1" parent="WIyWlLk6GJQsqaUBKTNV-0" />
        <mxCell id="PqIouGIMjxpmNfoaQIHX-0" value="" style="sketch=0;aspect=fixed;pointerEvents=1;shadow=0;dashed=0;html=1;strokeColor=none;labelPosition=center;verticalLabelPosition=bottom;verticalAlign=top;align=center;fillColor=#00188D;shape=mxgraph.azure.computer" vertex="1" parent="WIyWlLk6GJQsqaUBKTNV-1">
          <mxGeometry x="720" y="271" width="88.89" height="80" as="geometry" />
        </mxCell>
        <mxCell id="PqIouGIMjxpmNfoaQIHX-4" value="" style="whiteSpace=wrap;html=1;aspect=fixed;strokeColor=default;" vertex="1" parent="WIyWlLk6GJQsqaUBKTNV-1">
          <mxGeometry x="60" y="35" width="543" height="543" as="geometry" />
        </mxCell>
        <mxCell id="PqIouGIMjxpmNfoaQIHX-5" value="" style="endArrow=classic;html=1;rounded=0;exitX=0.056;exitY=0.4;exitDx=0;exitDy=0;exitPerimeter=0;entryX=0.94;entryY=0.5;entryDx=0;entryDy=0;entryPerimeter=0;" edge="1" parent="WIyWlLk6GJQsqaUBKTNV-1" source="PqIouGIMjxpmNfoaQIHX-0" target="PqIouGIMjxpmNfoaQIHX-10">
          <mxGeometry width="50" height="50" relative="1" as="geometry">
            <mxPoint x="720" y="300" as="sourcePoint" />
            <mxPoint x="600" y="300" as="targetPoint" />
          </mxGeometry>
        </mxCell>
        <mxCell id="PqIouGIMjxpmNfoaQIHX-6" value="User goes on site" style="text;html=1;align=center;verticalAlign=middle;resizable=0;points=[];autosize=1;strokeColor=none;fillColor=none;" vertex="1" parent="WIyWlLk6GJQsqaUBKTNV-1">
          <mxGeometry x="598" y="271.5" width="120" height="30" as="geometry" />
        </mxCell>
        <mxCell id="PqIouGIMjxpmNfoaQIHX-7" value="" style="outlineConnect=0;dashed=0;verticalLabelPosition=bottom;verticalAlign=top;align=center;html=1;shape=mxgraph.aws3.cloud_2;fillColor=#F58534;gradientColor=none;sketch=0;shadow=0;direction=east;flipV=0;" vertex="1" parent="WIyWlLk6GJQsqaUBKTNV-1">
          <mxGeometry x="80" y="20" width="70" height="55" as="geometry" />
        </mxCell>
        <mxCell id="PqIouGIMjxpmNfoaQIHX-9" value="AWS Cloud" style="text;html=1;align=center;verticalAlign=middle;resizable=0;points=[];autosize=1;strokeColor=none;fillColor=none;fontSize=16;fontStyle=1" vertex="1" parent="WIyWlLk6GJQsqaUBKTNV-1">
          <mxGeometry x="269" y="542" width="110" height="30" as="geometry" />
        </mxCell>
        <mxCell id="PqIouGIMjxpmNfoaQIHX-22" style="edgeStyle=orthogonalEdgeStyle;rounded=0;orthogonalLoop=1;jettySize=auto;html=1;fontSize=16;" edge="1" parent="WIyWlLk6GJQsqaUBKTNV-1" source="PqIouGIMjxpmNfoaQIHX-10" target="PqIouGIMjxpmNfoaQIHX-16">
          <mxGeometry relative="1" as="geometry" />
        </mxCell>
        <mxCell id="PqIouGIMjxpmNfoaQIHX-37" style="edgeStyle=orthogonalEdgeStyle;rounded=0;orthogonalLoop=1;jettySize=auto;html=1;fontSize=16;" edge="1" parent="WIyWlLk6GJQsqaUBKTNV-1" source="PqIouGIMjxpmNfoaQIHX-10" target="PqIouGIMjxpmNfoaQIHX-35">
          <mxGeometry relative="1" as="geometry" />
        </mxCell>
        <mxCell id="PqIouGIMjxpmNfoaQIHX-10" value="" style="outlineConnect=0;dashed=0;verticalLabelPosition=bottom;verticalAlign=top;align=center;html=1;shape=mxgraph.aws3.bucket;fillColor=#E05243;gradientColor=none;shadow=0;sketch=0;strokeColor=default;fontSize=16;" vertex="1" parent="WIyWlLk6GJQsqaUBKTNV-1">
          <mxGeometry x="470" y="257.75" width="80" height="90.5" as="geometry" />
        </mxCell>
        <mxCell id="PqIouGIMjxpmNfoaQIHX-12" value="" style="outlineConnect=0;dashed=0;verticalLabelPosition=bottom;verticalAlign=top;align=center;html=1;shape=mxgraph.aws3.rds;fillColor=#2E73B8;gradientColor=none;shadow=0;sketch=0;strokeColor=default;fontSize=16;" vertex="1" parent="WIyWlLk6GJQsqaUBKTNV-1">
          <mxGeometry x="130" y="259.5" width="72" height="87" as="geometry" />
        </mxCell>
        <mxCell id="PqIouGIMjxpmNfoaQIHX-15" value="" style="outlineConnect=0;dashed=0;verticalLabelPosition=bottom;verticalAlign=top;align=center;html=1;shape=mxgraph.aws3.cognito;fillColor=#AD688B;gradientColor=none;shadow=0;sketch=0;strokeColor=default;fontSize=16;" vertex="1" parent="WIyWlLk6GJQsqaUBKTNV-1">
          <mxGeometry x="293.25" y="50" width="76.5" height="93" as="geometry" />
        </mxCell>
        <mxCell id="PqIouGIMjxpmNfoaQIHX-21" style="edgeStyle=orthogonalEdgeStyle;rounded=0;orthogonalLoop=1;jettySize=auto;html=1;fontSize=16;" edge="1" parent="WIyWlLk6GJQsqaUBKTNV-1" source="PqIouGIMjxpmNfoaQIHX-16" target="PqIouGIMjxpmNfoaQIHX-12">
          <mxGeometry relative="1" as="geometry" />
        </mxCell>
        <mxCell id="PqIouGIMjxpmNfoaQIHX-16" value="" style="outlineConnect=0;dashed=0;verticalLabelPosition=bottom;verticalAlign=top;align=center;html=1;shape=mxgraph.aws3.application;fillColor=#F58534;gradientColor=none;shadow=0;sketch=0;strokeColor=default;fontSize=16;" vertex="1" parent="WIyWlLk6GJQsqaUBKTNV-1">
          <mxGeometry x="303.62" y="254.87" width="55.75" height="96.25" as="geometry" />
        </mxCell>
        <mxCell id="PqIouGIMjxpmNfoaQIHX-27" value="Fetches data" style="text;html=1;align=center;verticalAlign=middle;resizable=0;points=[];autosize=1;strokeColor=none;fillColor=none;" vertex="1" parent="WIyWlLk6GJQsqaUBKTNV-1">
          <mxGeometry x="369" y="271.5" width="90" height="30" as="geometry" />
        </mxCell>
        <mxCell id="PqIouGIMjxpmNfoaQIHX-28" value="Saves Data" style="text;html=1;align=center;verticalAlign=middle;resizable=0;points=[];autosize=1;strokeColor=none;fillColor=none;" vertex="1" parent="WIyWlLk6GJQsqaUBKTNV-1">
          <mxGeometry x="213.62" y="271.5" width="90" height="30" as="geometry" />
        </mxCell>
        <mxCell id="PqIouGIMjxpmNfoaQIHX-30" value="RDS" style="text;html=1;align=center;verticalAlign=middle;resizable=0;points=[];autosize=1;strokeColor=none;fillColor=none;" vertex="1" parent="WIyWlLk6GJQsqaUBKTNV-1">
          <mxGeometry x="141" y="351.12" width="50" height="30" as="geometry" />
        </mxCell>
        <mxCell id="PqIouGIMjxpmNfoaQIHX-31" value="Udagram API&lt;br&gt;on EB" style="text;html=1;align=center;verticalAlign=middle;resizable=0;points=[];autosize=1;strokeColor=none;fillColor=none;" vertex="1" parent="WIyWlLk6GJQsqaUBKTNV-1">
          <mxGeometry x="273.25" y="355" width="90" height="40" as="geometry" />
        </mxCell>
        <mxCell id="PqIouGIMjxpmNfoaQIHX-33" value="Angular hosted on s3" style="text;html=1;align=center;verticalAlign=middle;resizable=0;points=[];autosize=1;strokeColor=none;fillColor=none;" vertex="1" parent="WIyWlLk6GJQsqaUBKTNV-1">
          <mxGeometry x="440" y="360" width="140" height="30" as="geometry" />
        </mxCell>
        <mxCell id="PqIouGIMjxpmNfoaQIHX-38" style="edgeStyle=orthogonalEdgeStyle;rounded=0;orthogonalLoop=1;jettySize=auto;html=1;entryX=1;entryY=0.5;entryDx=0;entryDy=0;entryPerimeter=0;fontSize=16;" edge="1" parent="WIyWlLk6GJQsqaUBKTNV-1" source="PqIouGIMjxpmNfoaQIHX-35" target="PqIouGIMjxpmNfoaQIHX-15">
          <mxGeometry relative="1" as="geometry" />
        </mxCell>
        <mxCell id="PqIouGIMjxpmNfoaQIHX-35" value="Authentication" style="text;html=1;align=center;verticalAlign=middle;resizable=0;points=[];autosize=1;strokeColor=none;fillColor=none;" vertex="1" parent="WIyWlLk6GJQsqaUBKTNV-1">
          <mxGeometry x="460" y="143" width="100" height="30" as="geometry" />
        </mxCell>
        <mxCell id="PqIouGIMjxpmNfoaQIHX-39" value="Cognito" style="text;html=1;align=center;verticalAlign=middle;resizable=0;points=[];autosize=1;strokeColor=none;fillColor=none;" vertex="1" parent="WIyWlLk6GJQsqaUBKTNV-1">
          <mxGeometry x="304" y="150" width="60" height="30" as="geometry" />
        </mxCell>
      </root>
    </mxGraphModel>
  </diagram>
</mxfile>
